<svg xmlns="http://www.w3.org/2000/svg" xmlns:xlink="http://www.w3.org/1999/xlink" width="300" zoomAndPan="magnify" viewBox="0 0 224.87999 225" height="300" preserveAspectRatio="xMidYMid meet" version="1.0"><defs><clipPath id="id1"><path d="M 42.746094 33.28125 L 170.925781 33.28125 L 170.925781 118 L 42.746094 118 Z M 42.746094 33.28125 " clip-rule="nonzero"/></clipPath><clipPath id="id2"><path d="M 42.746094 106 L 170.925781 106 L 170.925781 118 L 42.746094 118 Z M 42.746094 106 " clip-rule="nonzero"/></clipPath><clipPath id="id3"><path d="M 43 161 L 170.925781 161 L 170.925781 165.960938 L 43 165.960938 Z M 43 161 " clip-rule="nonzero"/></clipPath><clipPath id="id4"><path d="M 154 0.0585938 L 187 0.0585938 L 187 38 L 154 38 Z M 154 0.0585938 " clip-rule="nonzero"/></clipPath><clipPath id="id5"><path d="M 151 0.0585938 L 191 0.0585938 L 191 42 L 151 42 Z M 151 0.0585938 " clip-rule="nonzero"/></clipPath><clipPath id="id6"><path d="M 147.214844 28 L 194.4375 28 L 194.4375 63 L 147.214844 63 Z M 147.214844 28 " clip-rule="nonzero"/></clipPath><clipPath id="id7"><path d="M 147.214844 24 L 194.4375 24 L 194.4375 66 L 147.214844 66 Z M 147.214844 24 " clip-rule="nonzero"/></clipPath><clipPath id="id8"><path d="M 13.140625 183.851562 L 54.367188 183.851562 L 54.367188 224.9375 L 13.140625 224.9375 Z M 13.140625 183.851562 " clip-rule="nonzero"/></clipPath><clipPath id="id9"><path d="M 170.652344 183.851562 L 211.878906 183.851562 L 211.878906 224.9375 L 170.652344 224.9375 Z M 170.652344 183.851562 " clip-rule="nonzero"/></clipPath><clipPath id="id10"><path d="M 189 183.851562 L 211.878906 183.851562 L 211.878906 224.9375 L 189 224.9375 Z M 189 183.851562 " clip-rule="nonzero"/></clipPath></defs><path fill="rgb(49.01886%, 48.239136%, 48.239136%)" d="M 83.558594 134.449219 C 83.558594 136.691406 93.972656 138.511719 106.816406 138.511719 C 119.660156 138.511719 130.074219 136.691406 130.074219 134.449219 L 130.074219 132.632812 L 83.558594 132.632812 L 83.558594 134.449219 " fill-opacity="1" fill-rule="nonzero"/><path fill="rgb(57.649231%, 56.858826%, 57.249451%)" d="M 130.074219 132.632812 C 130.074219 134.875 119.660156 136.695312 106.816406 136.695312 C 93.972656 136.695312 83.558594 134.875 83.558594 132.632812 C 83.558594 130.386719 93.972656 128.570312 106.816406 128.570312 C 119.660156 128.570312 130.074219 130.386719 130.074219 132.632812 " fill-opacity="1" fill-rule="nonzero"/><g clip-path="url(#id1)"><path fill="rgb(5.099487%, 12.159729%, 18.03894%)" d="M 170.902344 114.929688 C 170.902344 116.496094 169.683594 117.765625 168.179688 117.765625 L 45.453125 117.765625 C 43.949219 117.765625 42.726562 116.496094 42.726562 114.929688 L 42.726562 36.136719 C 42.726562 34.574219 43.949219 33.300781 45.453125 33.300781 L 168.179688 33.300781 C 169.683594 33.300781 170.902344 34.574219 170.902344 36.136719 L 170.902344 114.929688 " fill-opacity="1" fill-rule="nonzero"/></g><g clip-path="url(#id2)"><path fill="rgb(82.749939%, 82.348633%, 82.348633%)" d="M 42.726562 106.472656 L 42.726562 114.929688 C 42.726562 116.496094 43.949219 117.765625 45.453125 117.765625 L 168.179688 117.765625 C 169.683594 117.765625 170.902344 116.496094 170.902344 114.929688 L 170.902344 106.472656 L 42.726562 106.472656 " fill-opacity="1" fill-rule="nonzero"/></g><path fill="rgb(51.759338%, 84.309387%, 89.019775%)" d="M 47.921875 101.867188 L 165.707031 101.867188 L 165.707031 36.914062 L 47.921875 36.914062 Z M 47.921875 101.867188 " fill-opacity="1" fill-rule="nonzero"/><path fill="rgb(61.569214%, 87.449646%, 90.979004%)" d="M 165.707031 101.867188 L 47.921875 101.867188 L 47.921875 36.914062 L 165.707031 101.867188 " fill-opacity="1" fill-rule="nonzero"/><path fill="rgb(71.369934%, 70.979309%, 70.979309%)" d="M 119.164062 130.109375 C 116.164062 123.5625 119.328125 117.765625 119.328125 117.765625 L 94.300781 117.765625 C 94.300781 117.765625 97.46875 123.5625 94.46875 130.109375 C 94.359375 130.226562 94.300781 130.347656 94.300781 130.472656 C 94.300781 131.703125 99.90625 132.699219 106.816406 132.699219 C 113.726562 132.699219 119.328125 131.703125 119.328125 130.472656 C 119.328125 130.347656 119.269531 130.226562 119.164062 130.109375 " fill-opacity="1" fill-rule="nonzero"/><g clip-path="url(#id3)"><path fill="rgb(54.508972%, 53.329468%, 53.729248%)" d="M 43.773438 161.484375 C 42.910156 162.613281 44.5625 165.980469 47.160156 165.980469 C 86.957031 165.980469 126.761719 165.980469 166.5625 165.980469 C 169.152344 165.980469 170.789062 162.613281 169.792969 161.484375 L 43.773438 161.484375 " fill-opacity="1" fill-rule="nonzero"/></g><path fill="rgb(82.749939%, 82.348633%, 82.348633%)" d="M 169.460938 160.871094 C 170.453125 161.996094 169.152344 162.910156 166.5625 162.910156 C 126.761719 162.910156 86.957031 162.910156 47.160156 162.910156 C 44.5625 162.910156 43.164062 161.996094 44.027344 160.871094 C 48.105469 155.5625 52.179688 150.253906 56.253906 144.945312 C 57.117188 143.816406 59.382812 142.90625 61.316406 142.90625 C 90.925781 142.90625 120.535156 142.90625 150.148438 142.90625 C 152.074219 142.90625 154.445312 143.816406 155.4375 144.945312 C 160.113281 150.253906 164.785156 155.5625 169.460938 160.871094 " fill-opacity="1" fill-rule="nonzero"/><path fill="rgb(56.858826%, 56.079102%, 56.079102%)" d="M 63.320312 149.832031 C 61.355469 149.832031 60.375 149.835938 58.410156 149.835938 C 59.101562 148.808594 59.449219 148.292969 60.144531 147.269531 C 62.03125 147.269531 62.972656 147.269531 64.859375 147.269531 C 64.242188 148.292969 63.933594 148.808594 63.320312 149.832031 " fill-opacity="1" fill-rule="nonzero"/><path fill="rgb(56.858826%, 56.079102%, 56.079102%)" d="M 69.679688 149.835938 C 67.71875 149.835938 66.734375 149.835938 64.773438 149.835938 C 65.367188 148.808594 65.664062 148.292969 66.257812 147.269531 C 68.144531 147.269531 69.085938 147.269531 70.972656 147.269531 C 70.457031 148.292969 70.199219 148.808594 69.679688 149.835938 " fill-opacity="1" fill-rule="nonzero"/><path fill="rgb(56.858826%, 56.079102%, 56.079102%)" d="M 67.648438 146.78125 C 64.78125 146.78125 63.347656 146.78125 60.480469 146.78125 C 60.738281 146.394531 60.867188 146.207031 61.128906 145.824219 C 63.949219 145.824219 65.363281 145.824219 68.1875 145.824219 C 67.96875 146.207031 67.863281 146.394531 67.648438 146.78125 " fill-opacity="1" fill-rule="nonzero"/><path fill="rgb(56.858826%, 56.079102%, 56.079102%)" d="M 76.050781 146.78125 C 73.183594 146.78125 71.746094 146.78125 68.878906 146.78125 C 69.085938 146.394531 69.191406 146.207031 69.398438 145.824219 C 72.21875 145.824219 73.632812 145.824219 76.457031 145.824219 C 76.292969 146.207031 76.210938 146.398438 76.050781 146.78125 " fill-opacity="1" fill-rule="nonzero"/><path fill="rgb(56.858826%, 56.079102%, 56.079102%)" d="M 84.453125 146.78125 C 81.582031 146.78125 80.148438 146.78125 77.28125 146.78125 C 77.4375 146.394531 77.515625 146.207031 77.667969 145.824219 C 80.492188 145.824219 81.90625 145.824219 84.730469 145.824219 C 84.621094 146.207031 84.5625 146.394531 84.453125 146.78125 " fill-opacity="1" fill-rule="nonzero"/><path fill="rgb(56.858826%, 56.079102%, 56.079102%)" d="M 92.855469 146.78125 C 89.984375 146.78125 88.550781 146.78125 85.683594 146.78125 C 85.785156 146.394531 85.835938 146.207031 85.941406 145.824219 C 88.765625 145.824219 90.175781 145.824219 93 145.824219 C 92.941406 146.207031 92.914062 146.394531 92.855469 146.78125 " fill-opacity="1" fill-rule="nonzero"/><path fill="rgb(56.858826%, 56.079102%, 56.079102%)" d="M 101.253906 146.78125 C 98.386719 146.78125 96.953125 146.78125 94.085938 146.78125 C 94.136719 146.394531 94.164062 146.207031 94.214844 145.824219 C 97.035156 145.824219 98.449219 145.824219 101.273438 145.824219 C 101.265625 146.207031 101.261719 146.394531 101.253906 146.78125 " fill-opacity="1" fill-rule="nonzero"/><path fill="rgb(56.858826%, 56.079102%, 56.079102%)" d="M 109.65625 146.78125 C 106.789062 146.78125 105.355469 146.78125 102.488281 146.78125 C 102.488281 146.394531 102.488281 146.207031 102.488281 145.824219 C 105.308594 145.824219 106.722656 145.824219 109.542969 145.824219 C 109.589844 146.207031 109.613281 146.394531 109.65625 146.78125 " fill-opacity="1" fill-rule="nonzero"/><path fill="rgb(56.858826%, 56.079102%, 56.079102%)" d="M 118.058594 146.78125 C 115.191406 146.78125 113.757812 146.78125 110.886719 146.78125 C 110.835938 146.394531 110.808594 146.207031 110.757812 145.824219 C 113.582031 145.824219 114.992188 145.824219 117.816406 145.824219 C 117.914062 146.207031 117.960938 146.394531 118.058594 146.78125 " fill-opacity="1" fill-rule="nonzero"/><path fill="rgb(56.858826%, 56.079102%, 56.079102%)" d="M 126.460938 146.78125 C 123.589844 146.78125 122.15625 146.78125 119.289062 146.78125 C 119.183594 146.394531 119.132812 146.207031 119.027344 145.824219 C 121.855469 145.824219 123.265625 145.824219 126.089844 145.824219 C 126.238281 146.207031 126.3125 146.394531 126.460938 146.78125 " fill-opacity="1" fill-rule="nonzero"/><path fill="rgb(56.858826%, 56.079102%, 56.079102%)" d="M 134.863281 146.78125 C 131.992188 146.78125 130.558594 146.78125 127.691406 146.78125 C 127.535156 146.394531 127.457031 146.207031 127.300781 145.824219 C 130.125 145.824219 131.539062 145.824219 134.363281 145.824219 C 134.5625 146.207031 134.664062 146.394531 134.863281 146.78125 " fill-opacity="1" fill-rule="nonzero"/><path fill="rgb(56.858826%, 56.079102%, 56.079102%)" d="M 143.261719 146.78125 C 140.394531 146.78125 138.960938 146.78125 136.09375 146.78125 C 135.886719 146.394531 135.78125 146.207031 135.574219 145.824219 C 138.398438 145.824219 139.808594 145.824219 142.632812 145.824219 C 142.882812 146.207031 143.011719 146.394531 143.261719 146.78125 " fill-opacity="1" fill-rule="nonzero"/><path fill="rgb(56.858826%, 56.079102%, 56.079102%)" d="M 152.636719 146.78125 C 149.382812 146.78125 147.753906 146.78125 144.496094 146.78125 C 144.234375 146.394531 144.105469 146.207031 143.847656 145.824219 C 147.054688 145.824219 148.65625 145.824219 151.863281 145.824219 C 152.171875 146.207031 152.328125 146.394531 152.636719 146.78125 " fill-opacity="1" fill-rule="nonzero"/><path fill="rgb(56.858826%, 56.079102%, 56.079102%)" d="M 76.042969 149.832031 C 74.078125 149.832031 73.097656 149.835938 71.132812 149.835938 C 71.628906 148.808594 71.875 148.296875 72.367188 147.273438 C 74.253906 147.273438 75.195312 147.273438 77.082031 147.273438 C 76.664062 148.296875 76.460938 148.808594 76.042969 149.832031 " fill-opacity="1" fill-rule="nonzero"/><path fill="rgb(56.858826%, 56.079102%, 56.079102%)" d="M 82.40625 149.835938 C 80.441406 149.835938 79.460938 149.835938 77.496094 149.835938 C 77.890625 148.808594 78.085938 148.292969 78.476562 147.269531 C 80.367188 147.269531 81.308594 147.273438 83.195312 147.273438 C 82.878906 148.296875 82.722656 148.808594 82.40625 149.835938 " fill-opacity="1" fill-rule="nonzero"/><path fill="rgb(56.858826%, 56.079102%, 56.079102%)" d="M 88.769531 149.835938 C 86.804688 149.835938 85.824219 149.832031 83.859375 149.832031 C 84.152344 148.808594 84.300781 148.296875 84.59375 147.273438 C 86.480469 147.273438 87.421875 147.269531 89.308594 147.269531 C 89.089844 148.292969 88.984375 148.808594 88.769531 149.835938 " fill-opacity="1" fill-rule="nonzero"/><path fill="rgb(56.858826%, 56.079102%, 56.079102%)" d="M 95.128906 149.835938 C 93.164062 149.835938 92.183594 149.835938 90.222656 149.835938 C 90.414062 148.808594 90.507812 148.292969 90.703125 147.269531 C 92.589844 147.269531 93.53125 147.269531 95.417969 147.269531 C 95.300781 148.292969 95.246094 148.808594 95.128906 149.835938 " fill-opacity="1" fill-rule="nonzero"/><path fill="rgb(56.858826%, 56.079102%, 56.079102%)" d="M 101.492188 149.835938 C 99.527344 149.835938 98.546875 149.835938 96.585938 149.835938 C 96.675781 148.808594 96.722656 148.292969 96.816406 147.269531 C 98.703125 147.269531 99.644531 147.269531 101.527344 147.269531 C 101.515625 148.292969 101.507812 148.808594 101.492188 149.835938 " fill-opacity="1" fill-rule="nonzero"/><path fill="rgb(56.858826%, 56.079102%, 56.079102%)" d="M 107.855469 149.835938 C 105.894531 149.835938 104.910156 149.835938 102.945312 149.835938 C 102.941406 148.808594 102.933594 148.292969 102.925781 147.269531 C 104.8125 147.269531 105.757812 147.269531 107.640625 147.269531 C 107.726562 148.292969 107.769531 148.808594 107.855469 149.835938 " fill-opacity="1" fill-rule="nonzero"/><path fill="rgb(56.858826%, 56.079102%, 56.079102%)" d="M 114.214844 149.835938 C 112.257812 149.835938 111.273438 149.835938 109.3125 149.835938 C 109.203125 148.808594 109.148438 148.292969 109.039062 147.269531 C 110.925781 147.269531 111.867188 147.269531 113.753906 147.269531 C 113.9375 148.292969 114.03125 148.808594 114.214844 149.835938 " fill-opacity="1" fill-rule="nonzero"/><path fill="rgb(56.858826%, 56.079102%, 56.079102%)" d="M 120.578125 149.835938 C 118.617188 149.835938 117.632812 149.835938 115.667969 149.835938 C 115.460938 148.808594 115.359375 148.292969 115.148438 147.269531 C 117.035156 147.269531 117.980469 147.269531 119.863281 147.269531 C 120.148438 148.292969 120.292969 148.808594 120.578125 149.835938 " fill-opacity="1" fill-rule="nonzero"/><path fill="rgb(56.858826%, 56.079102%, 56.079102%)" d="M 61.261719 153.25 C 59.195312 153.25 58.164062 153.25 56.097656 153.25 C 56.792969 152.226562 57.136719 151.714844 57.828125 150.691406 C 59.820312 150.691406 60.8125 150.691406 62.804688 150.691406 C 62.1875 151.714844 61.878906 152.226562 61.261719 153.25 " fill-opacity="1" fill-rule="nonzero"/><path fill="rgb(56.858826%, 56.079102%, 56.079102%)" d="M 67.960938 153.25 C 65.894531 153.25 64.863281 153.25 62.792969 153.25 C 63.386719 152.226562 63.683594 151.714844 64.277344 150.691406 C 66.265625 150.691406 67.261719 150.6875 69.25 150.6875 C 68.734375 151.710938 68.476562 152.226562 67.960938 153.25 " fill-opacity="1" fill-rule="nonzero"/><path fill="rgb(56.858826%, 56.079102%, 56.079102%)" d="M 74.65625 153.25 C 72.589844 153.25 71.554688 153.25 69.488281 153.25 C 69.984375 152.226562 70.230469 151.714844 70.722656 150.691406 C 72.710938 150.691406 73.707031 150.691406 75.695312 150.691406 C 75.28125 151.714844 75.070312 152.226562 74.65625 153.25 " fill-opacity="1" fill-rule="nonzero"/><path fill="rgb(56.858826%, 56.079102%, 56.079102%)" d="M 81.351562 153.25 C 79.285156 153.25 78.253906 153.25 76.1875 153.25 C 76.578125 152.226562 76.773438 151.710938 77.167969 150.691406 C 79.15625 150.691406 80.152344 150.691406 82.144531 150.691406 C 81.828125 151.710938 81.667969 152.226562 81.351562 153.25 " fill-opacity="1" fill-rule="nonzero"/><path fill="rgb(56.858826%, 56.079102%, 56.079102%)" d="M 88.050781 153.25 C 85.984375 153.25 84.949219 153.25 82.886719 153.25 C 83.175781 152.226562 83.324219 151.714844 83.617188 150.691406 C 85.605469 150.691406 86.597656 150.691406 88.589844 150.691406 C 88.371094 151.714844 88.265625 152.226562 88.050781 153.25 " fill-opacity="1" fill-rule="nonzero"/><path fill="rgb(56.858826%, 56.079102%, 56.079102%)" d="M 94.746094 153.25 C 92.679688 153.25 91.644531 153.25 89.578125 153.25 C 89.773438 152.226562 89.867188 151.714844 90.0625 150.691406 C 92.050781 150.691406 93.046875 150.6875 95.035156 150.6875 C 94.917969 151.710938 94.863281 152.226562 94.746094 153.25 " fill-opacity="1" fill-rule="nonzero"/><path fill="rgb(56.858826%, 56.079102%, 56.079102%)" d="M 101.441406 153.25 C 99.375 153.25 98.34375 153.25 96.277344 153.25 C 96.371094 152.226562 96.414062 151.714844 96.507812 150.691406 C 98.496094 150.691406 99.488281 150.691406 101.476562 150.691406 C 101.464844 151.714844 101.457031 152.226562 101.441406 153.25 " fill-opacity="1" fill-rule="nonzero"/><path fill="rgb(56.858826%, 56.079102%, 56.079102%)" d="M 108.140625 153.25 C 106.074219 153.25 105.039062 153.25 102.972656 153.25 C 102.964844 152.226562 102.960938 151.714844 102.953125 150.691406 C 104.941406 150.691406 105.9375 150.691406 107.925781 150.691406 C 108.011719 151.714844 108.054688 152.226562 108.140625 153.25 " fill-opacity="1" fill-rule="nonzero"/><path fill="rgb(56.858826%, 56.079102%, 56.079102%)" d="M 114.835938 153.25 C 112.769531 153.25 111.738281 153.25 109.671875 153.25 C 109.5625 152.226562 109.507812 151.714844 109.402344 150.691406 C 111.390625 150.691406 112.382812 150.691406 114.371094 150.691406 C 114.554688 151.714844 114.648438 152.226562 114.835938 153.25 " fill-opacity="1" fill-rule="nonzero"/><path fill="rgb(56.858826%, 56.079102%, 56.079102%)" d="M 121.53125 153.25 C 119.464844 153.25 118.429688 153.25 116.367188 153.25 C 116.15625 152.226562 116.050781 151.714844 115.84375 150.691406 C 117.832031 150.691406 118.828125 150.691406 120.816406 150.691406 C 121.101562 151.714844 121.246094 152.226562 121.53125 153.25 " fill-opacity="1" fill-rule="nonzero"/><path fill="rgb(56.858826%, 56.079102%, 56.079102%)" d="M 59.207031 156.667969 C 57.035156 156.667969 55.953125 156.667969 53.78125 156.667969 C 54.476562 155.644531 54.824219 155.128906 55.519531 154.105469 C 57.609375 154.105469 58.65625 154.105469 60.75 154.105469 C 60.132812 155.128906 59.824219 155.644531 59.207031 156.667969 " fill-opacity="1" fill-rule="nonzero"/><path fill="rgb(56.858826%, 56.079102%, 56.079102%)" d="M 66.238281 156.667969 C 64.066406 156.667969 62.984375 156.667969 60.816406 156.667969 C 61.410156 155.644531 61.707031 155.128906 62.300781 154.105469 C 64.390625 154.105469 65.4375 154.105469 67.53125 154.105469 C 67.015625 155.128906 66.753906 155.644531 66.238281 156.667969 " fill-opacity="1" fill-rule="nonzero"/><path fill="rgb(56.858826%, 56.079102%, 56.079102%)" d="M 73.269531 156.667969 C 71.097656 156.667969 70.011719 156.667969 67.84375 156.667969 C 68.335938 155.644531 68.585938 155.128906 69.078125 154.105469 C 71.171875 154.105469 72.214844 154.105469 74.308594 154.105469 C 73.894531 155.128906 73.683594 155.644531 73.269531 156.667969 " fill-opacity="1" fill-rule="nonzero"/><path fill="rgb(56.858826%, 56.079102%, 56.079102%)" d="M 80.300781 156.667969 C 78.128906 156.667969 77.042969 156.667969 74.875 156.667969 C 75.265625 155.644531 75.464844 155.128906 75.859375 154.105469 C 77.953125 154.105469 78.996094 154.105469 81.089844 154.105469 C 80.773438 155.128906 80.617188 155.644531 80.300781 156.667969 " fill-opacity="1" fill-rule="nonzero"/><path fill="rgb(56.858826%, 56.079102%, 56.079102%)" d="M 87.332031 156.667969 C 85.164062 156.667969 84.078125 156.667969 81.90625 156.667969 C 82.199219 155.644531 82.347656 155.128906 82.640625 154.105469 C 84.734375 154.105469 85.78125 154.105469 87.871094 154.105469 C 87.65625 155.128906 87.546875 155.644531 87.332031 156.667969 " fill-opacity="1" fill-rule="nonzero"/><path fill="rgb(56.858826%, 56.079102%, 56.079102%)" d="M 94.359375 156.667969 C 92.191406 156.667969 91.105469 156.667969 88.9375 156.667969 C 89.128906 155.644531 89.226562 155.128906 89.417969 154.105469 C 91.511719 154.105469 92.558594 154.105469 94.648438 154.105469 C 94.535156 155.128906 94.476562 155.644531 94.359375 156.667969 " fill-opacity="1" fill-rule="nonzero"/><path fill="rgb(56.858826%, 56.079102%, 56.079102%)" d="M 101.390625 156.667969 C 99.222656 156.667969 98.136719 156.667969 95.96875 156.667969 C 96.0625 155.644531 96.109375 155.128906 96.199219 154.105469 C 98.289062 154.105469 99.335938 154.105469 101.429688 154.105469 C 101.414062 155.128906 101.402344 155.644531 101.390625 156.667969 " fill-opacity="1" fill-rule="nonzero"/><path fill="rgb(56.858826%, 56.079102%, 56.079102%)" d="M 108.421875 156.667969 C 106.253906 156.667969 105.167969 156.667969 103 156.667969 C 102.992188 155.644531 102.988281 155.128906 102.980469 154.105469 C 105.070312 154.105469 106.117188 154.105469 108.210938 154.105469 C 108.296875 155.128906 108.339844 155.644531 108.421875 156.667969 " fill-opacity="1" fill-rule="nonzero"/><path fill="rgb(56.858826%, 56.079102%, 56.079102%)" d="M 115.453125 156.667969 C 113.285156 156.667969 112.199219 156.667969 110.03125 156.667969 C 109.925781 155.644531 109.871094 155.128906 109.761719 154.105469 C 111.855469 154.105469 112.898438 154.105469 114.992188 154.105469 C 115.175781 155.128906 115.269531 155.644531 115.453125 156.667969 " fill-opacity="1" fill-rule="nonzero"/><path fill="rgb(56.858826%, 56.079102%, 56.079102%)" d="M 122.484375 156.667969 C 120.3125 156.667969 119.226562 156.667969 117.058594 156.667969 C 116.851562 155.644531 116.746094 155.128906 116.539062 154.105469 C 118.632812 154.105469 119.675781 154.105469 121.769531 154.105469 C 122.054688 155.128906 122.195312 155.644531 122.484375 156.667969 " fill-opacity="1" fill-rule="nonzero"/><path fill="rgb(56.858826%, 56.079102%, 56.079102%)" d="M 57.152344 160.085938 C 54.878906 160.085938 53.742188 160.085938 51.46875 160.085938 C 52.164062 159.058594 52.511719 158.546875 53.207031 157.523438 C 55.402344 157.523438 56.5 157.523438 58.695312 157.523438 C 58.078125 158.546875 57.769531 159.058594 57.152344 160.085938 " fill-opacity="1" fill-rule="nonzero"/><path fill="rgb(56.858826%, 56.079102%, 56.079102%)" d="M 64.519531 160.085938 C 62.246094 160.085938 61.109375 160.085938 58.835938 160.085938 C 59.429688 159.058594 59.726562 158.546875 60.320312 157.523438 C 62.515625 157.523438 63.613281 157.523438 65.808594 157.523438 C 65.292969 158.546875 65.035156 159.058594 64.519531 160.085938 " fill-opacity="1" fill-rule="nonzero"/><path fill="rgb(56.858826%, 56.079102%, 56.079102%)" d="M 71.882812 160.085938 C 69.609375 160.085938 68.472656 160.085938 66.199219 160.085938 C 66.695312 159.058594 66.941406 158.546875 67.433594 157.523438 C 69.628906 157.523438 70.726562 157.523438 72.921875 157.523438 C 72.503906 158.546875 72.296875 159.058594 71.882812 160.085938 " fill-opacity="1" fill-rule="nonzero"/><path fill="rgb(56.858826%, 56.079102%, 56.079102%)" d="M 79.222656 160.164062 C 76.945312 160.164062 75.808594 160.164062 73.53125 160.164062 C 73.9375 159.109375 74.140625 158.578125 74.546875 157.519531 C 76.742188 157.519531 77.839844 157.523438 80.035156 157.523438 C 79.710938 158.578125 79.550781 159.109375 79.222656 160.164062 " fill-opacity="1" fill-rule="nonzero"/><path fill="rgb(56.858826%, 56.079102%, 56.079102%)" d="M 123.4375 160.085938 C 109.265625 160.085938 95.097656 160.085938 80.929688 160.085938 C 81.222656 159.058594 81.367188 158.546875 81.660156 157.523438 C 95.347656 157.523438 109.035156 157.523438 122.722656 157.523438 C 123.007812 158.546875 123.152344 159.058594 123.4375 160.085938 " fill-opacity="1" fill-rule="nonzero"/><path fill="rgb(56.858826%, 56.079102%, 56.079102%)" d="M 126.335938 149.835938 C 124.371094 149.835938 123.390625 149.835938 121.425781 149.835938 C 121.128906 148.808594 120.976562 148.292969 120.679688 147.269531 C 122.566406 147.269531 123.507812 147.269531 125.394531 147.269531 C 125.769531 148.292969 125.960938 148.808594 126.335938 149.835938 " fill-opacity="1" fill-rule="nonzero"/><path fill="rgb(56.858826%, 56.079102%, 56.079102%)" d="M 127.589844 153.25 C 125.523438 153.25 124.488281 153.25 122.421875 153.25 C 122.125 152.226562 121.976562 151.714844 121.675781 150.691406 C 123.664062 150.691406 124.660156 150.691406 126.648438 150.691406 C 127.027344 151.714844 127.214844 152.226562 127.589844 153.25 " fill-opacity="1" fill-rule="nonzero"/><path fill="rgb(56.858826%, 56.079102%, 56.079102%)" d="M 128.84375 156.667969 C 126.675781 156.667969 125.589844 156.667969 123.421875 156.667969 C 123.121094 155.644531 122.972656 155.128906 122.671875 154.105469 C 124.765625 154.105469 125.8125 154.105469 127.90625 154.105469 C 128.28125 155.128906 128.46875 155.644531 128.84375 156.667969 " fill-opacity="1" fill-rule="nonzero"/><path fill="rgb(56.858826%, 56.079102%, 56.079102%)" d="M 130.097656 160.085938 C 127.824219 160.085938 126.6875 160.085938 124.417969 160.085938 C 124.117188 159.058594 123.96875 158.546875 123.667969 157.523438 C 125.863281 157.523438 126.960938 157.523438 129.15625 157.523438 C 129.535156 158.546875 129.722656 159.058594 130.097656 160.085938 " fill-opacity="1" fill-rule="nonzero"/><path fill="rgb(56.858826%, 56.079102%, 56.079102%)" d="M 132.089844 149.835938 C 130.125 149.835938 129.144531 149.835938 127.179688 149.835938 C 126.792969 148.808594 126.597656 148.292969 126.207031 147.269531 C 128.09375 147.269531 129.035156 147.269531 130.921875 147.269531 C 131.390625 148.292969 131.625 148.808594 132.089844 149.835938 " fill-opacity="1" fill-rule="nonzero"/><path fill="rgb(56.858826%, 56.079102%, 56.079102%)" d="M 133.644531 153.25 C 131.582031 153.25 130.546875 153.25 128.480469 153.25 C 128.089844 152.226562 127.894531 151.714844 127.503906 150.691406 C 129.496094 150.691406 130.488281 150.6875 132.480469 150.6875 C 132.945312 151.710938 133.179688 152.226562 133.644531 153.25 " fill-opacity="1" fill-rule="nonzero"/><path fill="rgb(56.858826%, 56.079102%, 56.079102%)" d="M 135.203125 156.667969 C 133.035156 156.667969 131.949219 156.667969 129.777344 156.667969 C 129.386719 155.644531 129.195312 155.128906 128.804688 154.105469 C 130.898438 154.105469 131.945312 154.105469 134.035156 154.105469 C 134.503906 155.128906 134.738281 155.644531 135.203125 156.667969 " fill-opacity="1" fill-rule="nonzero"/><path fill="rgb(56.858826%, 56.079102%, 56.079102%)" d="M 136.761719 160.085938 C 134.488281 160.085938 133.347656 160.085938 131.078125 160.085938 C 130.6875 159.058594 130.492188 158.546875 130.101562 157.523438 C 132.296875 157.523438 133.394531 157.523438 135.589844 157.523438 C 136.058594 158.546875 136.292969 159.058594 136.761719 160.085938 " fill-opacity="1" fill-rule="nonzero"/><path fill="rgb(56.858826%, 56.079102%, 56.079102%)" d="M 137.847656 149.835938 C 135.882812 149.835938 134.902344 149.835938 132.9375 149.835938 C 132.457031 148.808594 132.214844 148.292969 131.734375 147.269531 C 133.621094 147.269531 134.566406 147.269531 136.453125 147.269531 C 137.007812 148.292969 137.289062 148.808594 137.847656 149.835938 " fill-opacity="1" fill-rule="nonzero"/><path fill="rgb(56.858826%, 56.079102%, 56.079102%)" d="M 139.703125 153.25 C 137.636719 153.25 136.605469 153.25 134.539062 153.25 C 134.058594 152.226562 133.816406 151.710938 133.335938 150.6875 C 135.328125 150.6875 136.320312 150.691406 138.308594 150.691406 C 138.867188 151.714844 139.148438 152.226562 139.703125 153.25 " fill-opacity="1" fill-rule="nonzero"/><path fill="rgb(56.858826%, 56.079102%, 56.079102%)" d="M 141.5625 156.667969 C 139.394531 156.667969 138.308594 156.667969 136.136719 156.667969 C 135.660156 155.644531 135.417969 155.128906 134.9375 154.105469 C 137.03125 154.105469 138.074219 154.105469 140.167969 154.105469 C 140.726562 155.128906 141.003906 155.644531 141.5625 156.667969 " fill-opacity="1" fill-rule="nonzero"/><path fill="rgb(56.858826%, 56.079102%, 56.079102%)" d="M 143.421875 160.085938 C 141.148438 160.085938 140.011719 160.085938 137.738281 160.085938 C 137.257812 159.058594 137.019531 158.546875 136.539062 157.523438 C 138.734375 157.523438 139.832031 157.523438 142.027344 157.523438 C 142.585938 158.546875 142.863281 159.058594 143.421875 160.085938 " fill-opacity="1" fill-rule="nonzero"/><path fill="rgb(56.858826%, 56.079102%, 56.079102%)" d="M 143.601562 149.835938 C 141.636719 149.835938 140.65625 149.835938 138.691406 149.835938 C 138.121094 148.808594 137.835938 148.292969 137.265625 147.269531 C 139.152344 147.269531 140.09375 147.269531 141.980469 147.269531 C 142.628906 148.292969 142.953125 148.808594 143.601562 149.835938 " fill-opacity="1" fill-rule="nonzero"/><path fill="rgb(56.858826%, 56.079102%, 56.079102%)" d="M 145.761719 153.25 C 143.695312 153.25 142.664062 153.25 140.59375 153.25 C 140.023438 152.226562 139.738281 151.714844 139.167969 150.691406 C 141.15625 150.691406 142.152344 150.691406 144.140625 150.691406 C 144.789062 151.714844 145.113281 152.226562 145.761719 153.25 " fill-opacity="1" fill-rule="nonzero"/><path fill="rgb(56.858826%, 56.079102%, 56.079102%)" d="M 147.925781 156.667969 C 145.753906 156.667969 144.667969 156.667969 142.5 156.667969 C 141.929688 155.644531 141.640625 155.128906 141.074219 154.105469 C 143.164062 154.105469 144.210938 154.105469 146.300781 154.105469 C 146.949219 155.128906 147.273438 155.644531 147.925781 156.667969 " fill-opacity="1" fill-rule="nonzero"/><path fill="rgb(56.858826%, 56.079102%, 56.079102%)" d="M 150.085938 160.085938 C 147.808594 160.085938 146.675781 160.085938 144.402344 160.085938 C 143.832031 159.058594 143.546875 158.546875 142.972656 157.523438 C 145.171875 157.523438 146.269531 157.523438 148.460938 157.523438 C 149.109375 158.546875 149.433594 159.058594 150.085938 160.085938 " fill-opacity="1" fill-rule="nonzero"/><path fill="rgb(56.858826%, 56.079102%, 56.079102%)" d="M 149.355469 149.835938 C 147.390625 149.835938 146.410156 149.835938 144.445312 149.835938 C 143.785156 148.808594 143.453125 148.292969 142.792969 147.269531 C 144.679688 147.269531 145.621094 147.269531 147.507812 147.269531 C 148.246094 148.292969 148.617188 148.808594 149.355469 149.835938 " fill-opacity="1" fill-rule="nonzero"/><path fill="rgb(56.858826%, 56.079102%, 56.079102%)" d="M 151.820312 153.25 C 149.753906 153.25 148.71875 153.25 146.652344 153.25 C 145.988281 152.226562 145.65625 151.714844 144.996094 150.691406 C 146.988281 150.691406 147.980469 150.691406 149.972656 150.691406 C 150.710938 151.714844 151.082031 152.226562 151.820312 153.25 " fill-opacity="1" fill-rule="nonzero"/><path fill="rgb(56.858826%, 56.079102%, 56.079102%)" d="M 154.28125 156.667969 C 152.113281 156.667969 151.027344 156.667969 148.855469 156.667969 C 148.195312 155.644531 147.863281 155.128906 147.203125 154.105469 C 149.296875 154.105469 150.34375 154.105469 152.4375 154.105469 C 153.175781 155.128906 153.542969 155.644531 154.28125 156.667969 " fill-opacity="1" fill-rule="nonzero"/><path fill="rgb(56.858826%, 56.079102%, 56.079102%)" d="M 156.746094 160.085938 C 154.472656 160.085938 153.335938 160.085938 151.0625 160.085938 C 150.398438 159.058594 150.070312 158.546875 149.40625 157.523438 C 151.601562 157.523438 152.703125 157.523438 154.898438 157.523438 C 155.636719 158.546875 156.007812 159.058594 156.746094 160.085938 " fill-opacity="1" fill-rule="nonzero"/><path fill="rgb(56.858826%, 56.079102%, 56.079102%)" d="M 155.109375 149.835938 C 153.144531 149.835938 152.164062 149.835938 150.203125 149.835938 C 149.449219 148.808594 149.074219 148.292969 148.320312 147.269531 C 150.207031 147.269531 151.148438 147.269531 153.035156 147.269531 C 153.863281 148.292969 154.28125 148.808594 155.109375 149.835938 " fill-opacity="1" fill-rule="nonzero"/><path fill="rgb(56.858826%, 56.079102%, 56.079102%)" d="M 157.875 153.25 C 155.808594 153.25 154.773438 153.25 152.707031 153.25 C 151.957031 152.226562 151.578125 151.714844 150.828125 150.691406 C 152.816406 150.691406 153.8125 150.691406 155.800781 150.691406 C 156.628906 151.714844 157.046875 152.226562 157.875 153.25 " fill-opacity="1" fill-rule="nonzero"/><path fill="rgb(56.858826%, 56.079102%, 56.079102%)" d="M 160.640625 156.667969 C 158.472656 156.667969 157.386719 156.667969 155.214844 156.667969 C 154.464844 155.644531 154.085938 155.128906 153.335938 154.105469 C 155.429688 154.105469 156.472656 154.105469 158.566406 154.105469 C 159.394531 155.128906 159.8125 155.644531 160.640625 156.667969 " fill-opacity="1" fill-rule="nonzero"/><path fill="rgb(56.858826%, 56.079102%, 56.079102%)" d="M 163.40625 160.085938 C 161.132812 160.085938 159.996094 160.085938 157.722656 160.085938 C 156.972656 159.058594 156.59375 158.546875 155.84375 157.523438 C 158.039062 157.523438 159.136719 157.523438 161.332031 157.523438 C 162.164062 158.546875 162.578125 159.058594 163.40625 160.085938 " fill-opacity="1" fill-rule="nonzero"/><g clip-path="url(#id4)"><path fill="rgb(79.998779%, 79.998779%, 81.17981%)" d="M 170.859375 0.394531 C 162.828125 0.449219 154.769531 4.976562 154.902344 13.804688 L 154.902344 37.886719 L 162.023438 37.886719 L 162.023438 17.796875 C 161.582031 7.320312 179.460938 5.90625 179.546875 17.796875 L 179.546875 37.886719 L 186.679688 37.886719 L 186.679688 13.804688 C 186.90625 4.75 178.894531 0.335938 170.859375 0.394531 Z M 170.859375 0.394531 " fill-opacity="1" fill-rule="nonzero"/></g><g clip-path="url(#id5)"><path stroke-linecap="butt" transform="matrix(0.145528, 0, 0, 0.145031, 118.784482, -31.106195)" fill="none" stroke-linejoin="miter" d="M 357.833062 217.199514 C 302.646261 217.576588 247.271567 248.792912 248.184189 309.663397 L 248.184189 475.710538 L 297.116844 475.710538 L 297.116844 337.189784 C 294.083717 264.953218 416.93877 255.203166 417.52929 337.189784 L 417.52929 475.710538 L 466.542471 475.710538 L 466.542471 309.663397 C 468.099297 247.230749 413.046705 216.795506 357.833062 217.199514 Z M 357.833062 217.199514 " stroke="rgb(0%, 0%, 0%)" stroke-width="4.598" stroke-opacity="1" stroke-miterlimit="4"/></g><g clip-path="url(#id6)"><path fill="rgb(94.119263%, 64.709473%, 7.449341%)" d="M 151.621094 28.328125 L 189.96875 28.328125 C 192.214844 28.328125 194.023438 30.128906 194.023438 32.371094 L 194.023438 49.695312 C 194.148438 66.015625 147.550781 66.773438 147.5625 49.695312 L 147.5625 32.371094 C 147.5625 30.128906 149.375 28.328125 151.621094 28.328125 Z M 151.621094 28.328125 " fill-opacity="1" fill-rule="nonzero"/></g><g clip-path="url(#id7)"><path stroke-linecap="butt" transform="matrix(0.145528, 0, 0, 0.145031, 118.784482, -31.106195)" fill="none" stroke-linejoin="miter" d="M 225.637052 409.803425 L 489.143291 409.803425 C 504.577343 409.803425 517.00511 422.219926 517.00511 437.679952 L 517.00511 557.131546 C 517.864049 669.661141 197.667866 674.886307 197.748391 557.131546 L 197.748391 437.679952 C 197.748391 422.219926 210.203 409.803425 225.637052 409.803425 Z M 225.637052 409.803425 " stroke="rgb(0%, 0%, 0%)" stroke-width="4.598" stroke-opacity="1" stroke-miterlimit="4"/></g><path fill="rgb(19.999695%, 19.999695%, 19.999695%)" d="M 173.921875 40.324219 C 173.921875 42.042969 172.523438 43.4375 170.796875 43.4375 C 169.070312 43.4375 167.671875 42.042969 167.671875 40.324219 C 167.671875 38.601562 169.070312 37.207031 170.796875 37.207031 C 172.523438 37.207031 173.921875 38.601562 173.921875 40.324219 Z M 173.921875 40.324219 " fill-opacity="1" fill-rule="nonzero"/><path fill="rgb(19.999695%, 19.999695%, 19.999695%)" d="M 168.097656 41.5 L 173.304688 41.5 L 175.105469 52.3125 L 166.484375 52.398438 Z M 168.097656 41.5 " fill-opacity="1" fill-rule="nonzero"/><path fill="rgb(49.409485%, 85.099792%, 34.118652%)" d="M 29.21875 191.527344 C 28.335938 191.855469 27.855469 192.796875 28.144531 193.632812 C 28.433594 194.464844 29.386719 194.878906 30.265625 194.550781 C 31.148438 194.222656 31.632812 193.28125 31.34375 192.449219 C 31.054688 191.609375 30.101562 191.199219 29.21875 191.527344 " fill-opacity="1" fill-rule="nonzero"/><g clip-path="url(#id8)"><path fill="rgb(49.409485%, 85.099792%, 34.118652%)" d="M 40.507812 218.910156 C 39.734375 220.140625 39.589844 220.113281 38.9375 219.773438 L 36.230469 219.011719 L 36.875 218.230469 L 36.253906 217.320312 L 36.628906 215.867188 L 35.191406 215.035156 L 35.066406 214.238281 L 34.539062 213.527344 L 34.679688 212.660156 L 33.921875 211.882812 L 34.363281 210.550781 L 33.59375 209.640625 L 33.46875 208.722656 L 32.21875 208.011719 C 32.21875 208.011719 32.191406 207.046875 31.210938 207.28125 C 30.230469 207.511719 30.117188 206.613281 30.355469 205.578125 C 30.597656 204.542969 29.6875 203.753906 29.292969 203.792969 L 29.320312 203.785156 C 26.707031 203.398438 24.449219 201.707031 23.558594 199.136719 C 22.226562 195.304688 24.441406 190.96875 28.5 189.464844 C 32.5625 187.953125 36.933594 189.835938 38.265625 193.671875 C 39.199219 196.363281 38.386719 199.300781 36.414062 201.335938 C 36.246094 201.625 36.152344 202.128906 36.839844 202.742188 C 37.941406 203.730469 38.054688 204.421875 37.476562 205.125 C 36.914062 205.828125 37.308594 206.414062 37.554688 207.125 C 37.804688 207.835938 40.84375 216.652344 40.84375 216.652344 C 40.84375 216.652344 41.285156 217.675781 40.507812 218.910156 Z M 33.746094 183.84375 C 22.363281 183.84375 13.132812 193.074219 13.132812 204.457031 C 13.132812 215.84375 22.363281 225.070312 33.746094 225.070312 C 45.132812 225.070312 54.359375 215.84375 54.359375 204.457031 C 54.359375 193.074219 45.132812 183.84375 33.746094 183.84375 " fill-opacity="1" fill-rule="nonzero"/></g><g clip-path="url(#id9)"><path fill="rgb(79.998779%, 80.389404%, 89.408875%)" d="M 194.328125 185.265625 C 194.300781 184.582031 193.773438 184.019531 193.089844 183.953125 C 191.882812 183.851562 190.671875 183.847656 189.46875 183.957031 C 188.773438 184.019531 188.242188 184.597656 188.230469 185.292969 C 188.191406 187.289062 187.164062 188.746094 185.136719 189.664062 C 183.054688 190.449219 181.296875 190.144531 179.859375 188.757812 C 179.359375 188.273438 178.574219 188.242188 178.039062 188.6875 C 177.117188 189.460938 176.265625 190.3125 175.492188 191.234375 C 175.050781 191.773438 175.078125 192.554688 175.5625 193.054688 C 176.949219 194.492188 177.25 196.253906 176.46875 198.335938 C 175.550781 200.359375 174.09375 201.390625 172.09375 201.425781 C 171.398438 201.4375 170.824219 201.96875 170.757812 202.664062 C 170.652344 203.863281 170.652344 205.066406 170.757812 206.265625 C 170.824219 206.957031 171.398438 207.492188 172.09375 207.503906 C 174.09375 207.539062 175.550781 208.570312 176.46875 210.59375 C 177.25 212.675781 176.949219 214.4375 175.5625 215.871094 C 175.078125 216.375 175.046875 217.160156 175.492188 217.695312 C 176.265625 218.617188 177.117188 219.46875 178.039062 220.242188 C 178.574219 220.683594 179.359375 220.652344 179.859375 220.171875 C 181.296875 218.785156 183.054688 218.484375 185.136719 219.265625 C 187.164062 220.183594 188.191406 221.640625 188.226562 223.636719 C 188.238281 224.335938 188.773438 224.910156 189.46875 224.976562 C 190.664062 225.078125 191.871094 225.078125 193.070312 224.976562 C 193.761719 224.910156 194.292969 224.332031 194.304688 223.636719 C 194.34375 221.640625 195.371094 220.183594 197.398438 219.265625 C 199.480469 218.484375 201.238281 218.785156 202.675781 220.171875 C 203.175781 220.65625 203.960938 220.6875 204.5 220.242188 C 205.417969 219.46875 206.269531 218.617188 207.042969 217.695312 C 207.488281 217.15625 207.457031 216.375 206.972656 215.875 C 205.589844 214.4375 205.285156 212.675781 206.066406 210.59375 C 206.988281 208.570312 208.445312 207.539062 210.441406 207.503906 C 211.136719 207.492188 211.714844 206.960938 211.78125 206.265625 C 211.882812 205.066406 211.882812 203.863281 211.777344 202.664062 C 211.710938 201.972656 211.136719 201.441406 210.441406 201.425781 C 208.445312 201.390625 206.988281 200.359375 206.066406 198.335938 C 205.285156 196.253906 205.589844 194.492188 206.976562 193.058594 C 207.457031 192.554688 207.488281 191.773438 207.046875 191.234375 C 206.269531 190.3125 205.417969 189.460938 204.496094 188.6875 C 203.960938 188.246094 203.175781 188.277344 202.675781 188.761719 C 201.238281 190.144531 199.480469 190.449219 197.398438 189.664062 C 194.878906 188.71875 194.378906 186.597656 194.328125 185.265625 " fill-opacity="1" fill-rule="evenodd"/></g><g clip-path="url(#id10)"><path fill="rgb(71.369934%, 71.759033%, 84.309387%)" d="M 189.925781 183.921875 C 190.972656 183.851562 192.019531 183.863281 193.066406 183.953125 C 193.761719 184.019531 194.296875 184.59375 194.308594 185.292969 C 194.34375 187.289062 195.375 188.746094 197.398438 189.664062 C 197.644531 189.757812 197.890625 189.835938 198.128906 189.898438 C 197.109375 190.214844 195.972656 190.136719 194.71875 189.664062 C 192.3125 188.574219 191.3125 186.722656 191.710938 184.113281 C 191.121094 184.023438 190.523438 183.957031 189.925781 183.921875 M 202.289062 189.097656 C 202.421875 188.992188 202.554688 188.875 202.683594 188.75 C 203.183594 188.273438 203.960938 188.246094 204.492188 188.6875 C 205.417969 189.460938 206.269531 190.3125 207.042969 191.234375 C 207.488281 191.773438 207.457031 192.554688 206.972656 193.054688 C 205.589844 194.492188 205.285156 196.253906 206.066406 198.335938 C 206.988281 200.359375 208.445312 201.390625 210.441406 201.425781 C 211.136719 201.4375 211.714844 201.96875 211.78125 202.664062 C 211.882812 203.863281 211.882812 205.066406 211.777344 206.265625 C 211.710938 206.957031 211.136719 207.492188 210.441406 207.503906 C 208.445312 207.539062 206.988281 208.570312 206.066406 210.59375 C 205.285156 212.675781 205.589844 214.4375 206.976562 215.871094 C 207.457031 216.375 207.488281 217.160156 207.046875 217.695312 C 206.269531 218.617188 205.417969 219.46875 204.492188 220.242188 C 203.960938 220.683594 203.183594 220.65625 202.683594 220.179688 C 202.554688 220.054688 202.421875 219.9375 202.289062 219.832031 C 203.113281 219.09375 203.878906 218.292969 204.574219 217.433594 C 204.90625 217.019531 204.867188 216.421875 204.484375 216.054688 C 202.933594 214.589844 202.570312 212.769531 203.386719 210.59375 C 204.34375 208.480469 205.890625 207.453125 208.027344 207.507812 C 208.550781 207.515625 209 207.125 209.058594 206.601562 C 209.210938 205.179688 209.210938 203.75 209.0625 202.328125 C 209.003906 201.800781 208.554688 201.40625 208.027344 201.417969 C 205.890625 201.480469 204.34375 200.449219 203.386719 198.335938 C 202.570312 196.160156 202.933594 194.339844 204.480469 192.871094 C 204.863281 192.503906 204.902344 191.910156 204.570312 191.5 C 203.878906 190.636719 203.113281 189.835938 202.289062 189.097656 M 189.925781 225.011719 C 190.523438 224.972656 191.121094 224.90625 191.710938 224.816406 C 191.3125 222.207031 192.3125 220.355469 194.71875 219.265625 C 195.972656 218.792969 197.109375 218.714844 198.128906 219.03125 C 197.890625 219.09375 197.644531 219.171875 197.398438 219.265625 C 195.375 220.183594 194.34375 221.640625 194.308594 223.636719 C 194.296875 224.335938 193.761719 224.914062 193.066406 224.976562 C 192.023438 225.066406 190.972656 225.078125 189.925781 225.011719 " fill-opacity="1" fill-rule="evenodd"/></g><path fill="rgb(93.728638%, 16.079712%, 42.349243%)" d="M 197.335938 206.792969 C 197.371094 206.917969 197.484375 207.007812 197.617188 207.011719 C 197.746094 207.015625 197.863281 206.9375 197.90625 206.8125 C 198.175781 206.027344 198.320312 205.1875 198.320312 204.3125 C 198.320312 200.042969 194.855469 196.578125 190.585938 196.578125 C 186.320312 196.578125 182.855469 200.042969 182.855469 204.3125 C 182.855469 208.578125 186.320312 212.042969 190.585938 212.042969 C 191.339844 212.042969 191.949219 212.652344 191.949219 213.40625 C 191.949219 214.15625 191.339844 214.765625 190.585938 214.765625 C 184.816406 214.765625 180.132812 210.082031 180.132812 204.3125 C 180.132812 198.542969 184.816406 193.855469 190.585938 193.855469 C 196.355469 193.855469 201.042969 198.542969 201.042969 204.3125 C 201.042969 205.609375 200.804688 206.855469 200.371094 208.003906 C 200.328125 208.109375 200.351562 208.226562 200.425781 208.3125 C 200.5 208.394531 200.617188 208.429688 200.726562 208.398438 C 201.230469 208.261719 201.882812 208.082031 201.882812 208.082031 C 202.542969 207.898438 203.230469 208.289062 203.414062 208.949219 C 203.59375 209.609375 203.207031 210.296875 202.542969 210.480469 C 202.542969 210.480469 199.125 211.425781 197.328125 211.921875 C 197.042969 212 196.738281 211.964844 196.484375 211.820312 C 196.226562 211.671875 196.039062 211.433594 195.960938 211.148438 C 195.464844 209.351562 194.515625 205.929688 194.515625 205.929688 C 194.335938 205.269531 194.722656 204.582031 195.386719 204.398438 C 196.046875 204.21875 196.734375 204.605469 196.917969 205.269531 C 196.917969 205.269531 197.148438 206.113281 197.335938 206.792969 " fill-opacity="1" fill-rule="evenodd"/><path fill="rgb(87.059021%, 14.898682%, 42.749023%)" d="M 189.914062 193.878906 C 190.136719 193.863281 190.363281 193.855469 190.585938 193.855469 C 196.355469 193.855469 201.042969 198.542969 201.042969 204.3125 C 201.042969 205.59375 200.8125 206.820312 200.386719 207.957031 C 200.34375 208.074219 200.246094 208.164062 200.121094 208.195312 C 200.113281 208.199219 200.101562 208.203125 200.089844 208.203125 C 199.847656 208.273438 199.585938 208.199219 199.410156 208.019531 C 199.234375 207.835938 199.171875 207.574219 199.246094 207.332031 C 199.542969 206.378906 199.699219 205.363281 199.699219 204.3125 C 199.699219 198.765625 195.371094 194.226562 189.914062 193.878906 M 201.472656 208.195312 L 201.882812 208.082031 C 202.542969 207.898438 203.230469 208.289062 203.414062 208.949219 C 203.59375 209.609375 203.207031 210.296875 202.542969 210.480469 C 202.542969 210.480469 199.125 211.425781 197.328125 211.921875 C 197.042969 212 196.738281 211.964844 196.484375 211.820312 C 196.46875 211.8125 196.457031 211.804688 196.445312 211.796875 L 201.199219 210.480469 C 201.863281 210.296875 202.25 209.609375 202.066406 208.949219 C 201.976562 208.613281 201.753906 208.351562 201.472656 208.195312 " fill-opacity="1" fill-rule="evenodd"/><path fill="rgb(93.728638%, 16.079712%, 42.349243%)" d="M 191.269531 187.316406 C 191.851562 187.316406 192.328125 187.789062 192.328125 188.375 C 192.328125 188.960938 191.851562 189.4375 191.269531 189.4375 C 190.683594 189.4375 190.207031 188.960938 190.207031 188.375 C 190.207031 187.789062 190.683594 187.316406 191.269531 187.316406 " fill-opacity="1" fill-rule="evenodd"/><path fill="rgb(93.728638%, 16.079712%, 42.349243%)" d="M 203.394531 192.339844 C 203.808594 192.753906 203.808594 193.425781 203.394531 193.835938 C 202.980469 194.25 202.308594 194.25 201.894531 193.835938 C 201.480469 193.425781 201.480469 192.753906 201.894531 192.339844 C 202.308594 191.925781 202.980469 191.925781 203.394531 192.339844 " fill-opacity="1" fill-rule="evenodd"/><path fill="rgb(93.728638%, 16.079712%, 42.349243%)" d="M 208.417969 204.464844 C 208.417969 205.050781 207.941406 205.523438 207.359375 205.523438 C 206.773438 205.523438 206.296875 205.050781 206.296875 204.464844 C 206.296875 203.878906 206.773438 203.40625 207.359375 203.40625 C 207.941406 203.40625 208.417969 203.878906 208.417969 204.464844 " fill-opacity="1" fill-rule="evenodd"/><path fill="rgb(93.728638%, 16.079712%, 42.349243%)" d="M 203.394531 216.589844 C 202.980469 217.003906 202.308594 217.003906 201.894531 216.589844 C 201.480469 216.179688 201.480469 215.507812 201.894531 215.09375 C 202.308594 214.679688 202.980469 214.679688 203.394531 215.09375 C 203.808594 215.507812 203.808594 216.179688 203.394531 216.589844 " fill-opacity="1" fill-rule="evenodd"/><path fill="rgb(93.728638%, 16.079712%, 42.349243%)" d="M 191.269531 219.496094 C 191.851562 219.496094 192.328125 219.96875 192.328125 220.554688 C 192.328125 221.140625 191.851562 221.613281 191.269531 221.613281 C 190.683594 221.613281 190.207031 221.140625 190.207031 220.554688 C 190.207031 219.96875 190.683594 219.496094 191.269531 219.496094 " fill-opacity="1" fill-rule="evenodd"/><path fill="rgb(93.728638%, 16.079712%, 42.349243%)" d="M 180.640625 215.09375 C 181.054688 215.507812 181.054688 216.179688 180.640625 216.589844 C 180.226562 217.003906 179.554688 217.003906 179.140625 216.589844 C 178.726562 216.179688 178.726562 215.507812 179.140625 215.09375 C 179.554688 214.679688 180.226562 214.679688 180.640625 215.09375 " fill-opacity="1" fill-rule="evenodd"/><path fill="rgb(93.728638%, 16.079712%, 42.349243%)" d="M 176.238281 204.464844 C 176.238281 205.050781 175.761719 205.523438 175.179688 205.523438 C 174.59375 205.523438 174.117188 205.050781 174.117188 204.464844 C 174.117188 203.878906 174.59375 203.40625 175.179688 203.40625 C 175.761719 203.40625 176.238281 203.878906 176.238281 204.464844 " fill-opacity="1" fill-rule="evenodd"/><path fill="rgb(93.728638%, 16.079712%, 42.349243%)" d="M 180.640625 193.835938 C 180.226562 194.25 179.554688 194.25 179.140625 193.835938 C 178.726562 193.425781 178.726562 192.753906 179.140625 192.339844 C 179.554688 191.925781 180.226562 191.925781 180.640625 192.339844 C 181.054688 192.753906 181.054688 193.425781 180.640625 193.835938 " fill-opacity="1" fill-rule="evenodd"/></svg>